<?xml version="1.0" encoding="UTF-8" standalone="no"?>
<svg
   width="512"
   height="512"
   viewBox="0 0 512 512"
   version="1.1"
   id="svg1"
   xml:space="preserve"
   xmlns="http://www.w3.org/2000/svg"
   xmlns:svg="http://www.w3.org/2000/svg"><defs
     id="defs1" /><g
     id="layer1"><path
     fill="currentColor"
       d="m 24.936812,388.24127 c 0,-11.2991 30.03821,-63.92801 66.751581,-116.9531 36.713377,-53.0251 66.751597,-99.23558 66.751597,-102.68991 0,-3.45435 -30.03822,-6.2806 -66.751597,-6.2806 -64.355409,0 -66.751581,-0.92118 -66.751581,-25.67369 V 110.97028 H 143.03577 c 101.76456,0 118.09897,2.28905 118.09897,16.55008 0,9.10254 -30.03822,59.9343 -66.75159,112.9594 -36.71337,53.02509 -66.75159,98.7221 -66.75159,101.54887 0,2.82677 26.66202,5.13956 59.24901,5.13956 h 59.24904 l -3.30175,-74.45368 c -2.7058,-61.01651 0.48884,-80.50109 17.70179,-107.96206 28.38083,-45.27824 79.62418,-68.852417 129.37619,-59.51891 44.37103,8.32401 97.15735,55.64761 97.15735,87.10261 0,31.92573 -63.00363,30.47425 -77.15323,-1.77745 -14.72107,-33.55428 -66.66368,-31.96918 -84.13636,2.56737 -25.21567,49.84156 -12.02731,144.44828 21.95416,157.48825 23.01227,8.83063 67.4491,-10.18659 67.4491,-28.86554 0,-11.04902 10.58065,-15.65848 35.94317,-15.65848 29.54056,0 35.94316,3.79939 35.94316,21.32897 0,11.73094 -13.50836,34.83725 -30.01849,51.34739 -25.82362,25.82361 -37.82822,30.01839 -85.90562,30.01839 -40.98947,0 -63.10006,-5.67368 -82.94572,-21.2843 l -27.05862,-21.28433 v 21.28433 c 0,20.29894 -5.46778,21.2843 -118.09897,21.2843 -111.261957,0 -118.098958,-1.18931 -118.098958,-20.54378 z"
       id="path1" /></g></svg>
